<svg width="54" height="54" viewBox="0 0 54 54" fill="none" xmlns="http://www.w3.org/2000/svg">
<path d="M47.25 15.1875H23.625C20.7562 15.1875 18.5625 17.3812 18.5625 20.25C18.5625 23.1188 20.7562 25.3125 23.625 25.3125H47.25V50.625" stroke="#6E2089" stroke-width="4" stroke-miterlimit="10" stroke-linecap="round" stroke-linejoin="round"/>
<path d="M47.25 50.625H23.625C20.7562 50.625 18.5625 48.4313 18.5625 45.5625V20.25" stroke="#6E2089" stroke-width="4" stroke-miterlimit="10" stroke-linecap="round" stroke-linejoin="round"/>
<path d="M47.25 20.25H23.625" stroke="#6E2089" stroke-width="4" stroke-miterlimit="10" stroke-linecap="round" stroke-linejoin="round"/>
<path d="M35.4375 5.0625H11.8125C8.94375 5.0625 6.75 7.25625 6.75 10.125C6.75 12.9938 8.94375 15.1875 11.8125 15.1875H25.3125" stroke="#6E2089" stroke-width="4" stroke-miterlimit="10" stroke-linecap="round" stroke-linejoin="round"/>
<path d="M18.5625 40.5H11.8125C8.94375 40.5 6.75 38.3063 6.75 35.4375V10.125" stroke="#6E2089" stroke-width="4" stroke-miterlimit="10" stroke-linecap="round" stroke-linejoin="round"/>
<path d="M35.4375 10.125H11.8125" stroke="#6E2089" stroke-width="4" stroke-miterlimit="10" stroke-linecap="round" stroke-linejoin="round"/>
</svg>
