
<svg width="47" height="43" viewBox="0 0 47 43" fill="none" xmlns="http://www.w3.org/2000/svg">
<path d="M45.2146 6.7403L24.3257 0.231874C23.7898 0.0646358 23.2102 0.0646358 22.6743 0.231874L1.83796 6.72391L1.82691 6.72734L1.78536 6.7403C1.74754 6.75206 1.71115 6.76631 1.67423 6.77957C1.63046 6.79531 1.58708 6.81155 1.5445 6.82938C1.49122 6.85167 1.43852 6.87481 1.38737 6.90019C1.36165 6.91295 1.33693 6.9271 1.31172 6.94066C1.26842 6.9639 1.22571 6.98773 1.18417 7.01311C1.16037 7.02765 1.13705 7.0427 1.11375 7.05799C1.07096 7.086 1.02926 7.11515 0.988638 7.14544C0.969036 7.15999 0.949274 7.17429 0.930124 7.18938C0.881596 7.22762 0.834759 7.26741 0.789613 7.30875C0.779943 7.31759 0.769612 7.32574 0.760075 7.33467C0.70605 7.38552 0.654591 7.43845 0.605699 7.49347C0.591915 7.50891 0.579351 7.52525 0.565991 7.54099C0.532229 7.58082 0.499453 7.62124 0.468429 7.66295C0.451324 7.68589 0.435068 7.70927 0.418818 7.73276C0.393432 7.76951 0.369147 7.80688 0.345961 7.84488C0.330156 7.87065 0.314299 7.89627 0.299477 7.92269C0.276449 7.96371 0.255413 8.00576 0.234852 8.04807C0.223483 8.07146 0.210945 8.09415 0.200374 8.11794C0.172431 8.18065 0.147623 8.24476 0.125257 8.30975C0.116146 8.33637 0.108842 8.36363 0.100669 8.39059C0.0873352 8.43464 0.0747974 8.47883 0.0640657 8.52372C0.057266 8.55232 0.0512105 8.58112 0.0454726 8.61012C0.0360182 8.65784 0.0283675 8.70595 0.0218876 8.75453C0.0185671 8.77975 0.0146614 8.80483 0.0121656 8.8303C0.00480664 8.90477 0 8.97976 0 9.05562V25.3267C0 25.974 0.275099 26.5948 0.764777 27.0525C1.25446 27.5102 1.9186 27.7673 2.61111 27.7673C3.30362 27.7673 3.96777 27.5102 4.45745 27.0525C4.94712 26.5948 5.22222 25.974 5.22222 25.3267V12.4418L10.3823 14.0496C8.78882 16.9014 8.31058 20.1838 9.03018 23.3301C9.74977 26.4764 11.622 29.2892 14.3238 31.2827C10.6249 32.8914 7.48462 35.4399 5.26143 38.6373C4.88333 39.1795 4.75112 39.8399 4.89387 40.4732C5.03663 41.1065 5.44265 41.6609 6.02266 42.0144C6.60266 42.3679 7.30913 42.4917 7.98671 42.3583C8.66428 42.225 9.25747 41.8456 9.6358 41.3036C11.1381 39.1459 13.1931 37.373 15.6141 36.1458C18.0352 34.9185 20.7458 34.2758 23.4999 34.2758C26.2541 34.2758 28.9647 34.9185 31.3858 36.1458C33.8068 37.373 35.8618 39.1459 37.3641 41.3036C37.7424 41.8458 38.3356 42.2253 39.0132 42.3587C39.6909 42.4921 40.3975 42.3684 40.9775 42.0148C41.5576 41.6613 41.9637 41.1068 42.1064 40.4734C42.2491 39.8399 42.1167 39.1795 41.7385 38.6373C39.5153 35.44 36.375 32.8915 32.6762 31.2827C35.3779 29.2892 37.2502 26.4765 37.9698 23.3301C38.6894 20.1838 38.2112 16.9014 36.6177 14.0496L45.2146 11.371C45.7345 11.209 46.1867 10.8982 46.5071 10.4827C46.8276 10.0671 47 9.56786 47 9.05562C47 8.54339 46.8276 8.04414 46.5071 7.62859C46.1867 7.21305 45.7345 6.90227 45.2146 6.7403ZM23.5 5.11994L36.1318 9.05562L31.6261 10.4595L31.6189 10.4617L23.5 12.9913L15.3809 10.4617L15.3747 10.4597L10.8682 9.05562L23.5 5.11994ZM33.0741 20.4454C33.0744 21.8353 32.7283 23.2063 32.0632 24.4495C31.3981 25.6927 30.4324 26.774 29.2425 27.6078C28.0526 28.4415 26.6713 29.0046 25.2081 29.2526C23.7449 29.5006 22.24 29.4266 20.8127 29.0365C19.3855 28.6463 18.075 27.9508 16.9853 27.005C15.8956 26.0591 15.0566 24.8891 14.5348 23.5875C14.0129 22.2859 13.8226 20.8886 13.979 19.5063C14.1353 18.124 14.634 16.7948 15.4354 15.6239L22.6743 17.8794C23.2102 18.0465 23.7898 18.0465 24.3257 17.8794L31.5646 15.6239C32.5513 17.0628 33.0752 18.7363 33.0741 20.4454Z" fill="#2C66E6"/>
</svg>
