<svg width="100" height="108" viewBox="0 0 100 108" fill="none" xmlns="http://www.w3.org/2000/svg">
<rect x="68" y="45" width="63" height="36" rx="18" transform="rotate(90 68 45)" fill="#9933FF"/>
<path fill-rule="evenodd" clip-rule="evenodd" d="M18 0C8.05908 0 0 8.05884 0 18C0 27.9412 8.05908 36 18 36H82C91.9409 36 100 27.9412 100 18C100 8.05884 91.9409 0 82 0H18ZM81 32C88.7319 32 95 25.7319 95 18C95 10.2681 88.7319 4 81 4C73.2681 4 67 10.2681 67 18C67 25.7319 73.2681 32 81 32Z" fill="#9933FF"/>
</svg>
